<?xml version="1.0" encoding="UTF-8" standalone="no"?>
<!DOCTYPE svg PUBLIC "-//W3C//DTD SVG 1.1//EN" "http://www.w3.org/Graphics/SVG/1.1/DTD/svg11.dtd">
<svg xmlns="http://www.w3.org/2000/svg" version="1.1" viewBox="0.00 0.00 1448.00 1448.00">
<path fill="#130f49" d="
  M 246.70 541.82
  Q 246.51 541.96 246.51 542.21
  Q 246.52 932.38 246.51 1325.05
  Q 246.51 1325.79 245.77 1325.79
  L 21.46 1325.80
  Q 20.87 1325.80 20.87 1325.21
  L 20.87 123.03
  Q 20.87 122.49 21.41 122.49
  Q 136.67 122.51 256.45 122.48
  Q 257.34 122.48 257.73 123.29
  Q 258.00 123.86 679.57 811.65
  Q 701.10 846.78 719.28 877.26
  Q 724.26 885.61 729.33 894.53
  Q 851.75 1109.78 974.33 1325.26
  Q 974.62 1325.78 974.02 1325.78
  L 732.31 1325.82
  A 1.14 1.13 -15.5 0 1 731.34 1325.28
  L 247.05 541.89
  A 0.24 0.24 0.0 0 0 246.70 541.82
  Z"
/>
<path fill="#130f49" d="
  M 725.00 328.06
  C 708.72 328.10 691.94 327.72 675.25 327.82
  Q 673.33 327.83 671.42 327.43
  Q 670.93 327.32 670.64 326.91
  Q 665.49 319.57 659.84 310.68
  Q 600.73 217.59 540.56 123.09
  Q 540.22 122.55 540.86 122.55
  Q 708.56 122.43 876.23 122.60
  Q 885.35 122.61 896.33 122.87
  C 945.65 124.05 992.62 127.12 1040.03 135.01
  C 1117.18 147.86 1187.57 181.52 1245.45 232.99
  Q 1268.97 253.90 1290.52 279.76
  C 1339.07 338.03 1373.95 407.50 1395.01 480.32
  C 1407.74 524.36 1415.87 570.66 1420.65 616.82
  Q 1427.37 681.75 1426.59 756.25
  Q 1425.87 824.35 1416.34 888.51
  Q 1399.23 1003.58 1342.81 1105.12
  Q 1314.53 1156.03 1275.14 1198.89
  Q 1238.13 1239.17 1190.84 1266.53
  Q 1190.43 1266.77 1190.17 1266.37
  L 1072.90 1081.02
  A 0.83 0.81 55.4 0 1 1073.09 1079.93
  C 1106.79 1054.31 1126.58 1015.56 1140.84 975.85
  C 1153.84 939.67 1161.43 902.74 1165.98 864.24
  C 1173.16 803.39 1174.23 741.70 1172.22 680.50
  Q 1171.39 655.02 1169.31 629.61
  Q 1165.85 587.44 1157.31 548.31
  Q 1148.58 508.29 1130.54 470.38
  Q 1121.11 450.57 1108.59 432.36
  Q 1069.81 375.96 1005.57 351.62
  Q 978.82 341.49 950.77 337.04
  Q 935.24 334.58 920.74 333.30
  C 883.03 329.98 845.29 328.89 806.75 328.33
  Q 780.86 327.96 725.00 328.06
  Z"
/>
</svg>
